# xmcd
#
# Track frame offsets:
#	150
#	13290
#	26645
#	39354
#	51918
#	66015
#	78732
#	92319
#	105786
#	119341
#	131546
#	144147
#	157606
#	170289
#	181626
#	193750
#	206149
#	216616
#	228492
#	239274
#	250996
#	261645
#	272419
#	285172
#	297508
#	309581
#	321107
#	330293
#	339328
#
# Disc length: 4646 seconds
#
# Revision: 0
# Processed by: cddbd v1.5.2PL0 Copyright (c) Steve Scherf et al.
# Submitted via: EasyCDDAExtractor 15.3.0.1
#
DISCID=9612241d
DTITLE=Newman Roy - Round The World On A Dime
DYEAR=1900
DGENRE=
TTITLE0=Tiger Rag
TTITLE1=Chicken Reel
TTITLE2=Git Along Home Cindy
TTITLE3=Somebody Loves Me
TTITLE4=Barn Dance Rag
TTITLE5=Slow And Easy
TTITLE6=Lonesome Road
TTITLE7=Corrine Corrine
TTITLE8=How Many Times
TTITLE9=Good Man Is Hard To Find
TTITLE10=Some Of These Days
TTITLE11=There'll Be Some Changes Made
TTITLE12=Birmingham Jail
TTITLE13=When You And I Were Young Maggie
TTITLE14=We'll Meet By The Bend In The River
TTITLE15=Who Calls You Sweet Mama Now
TTITLE16=Night That You Nestled In My Arms
TTITLE17=When There's Tears In The Eyes Of A Potato
TTITLE18=Graveyard Blues
TTITLE19=Better Get Off Your High Horse Baby
TTITLE20=I've Got It
TTITLE21=I Don't Love Anyone But You
TTITLE22=I Used To Love You
TTITLE23=Round The World On A Dime
TTITLE24=Over The Santa Fe Trail
TTITLE25=Red River Valley
TTITLE26=That Old White Mule Of Mine
TTITLE27=Mexicali Rose
TTITLE28=Roll Along Jordan
EXTD=
EXTT0=
EXTT1=
EXTT2=
EXTT3=
EXTT4=
EXTT5=
EXTT6=
EXTT7=
EXTT8=
EXTT9=
EXTT10=
EXTT11=
EXTT12=
EXTT13=
EXTT14=
EXTT15=
EXTT16=
EXTT17=
EXTT18=
EXTT19=
EXTT20=
EXTT21=
EXTT22=
EXTT23=
EXTT24=
EXTT25=
EXTT26=
EXTT27=
EXTT28=
PLAYORDER=
